#!OML:ASF E:\Steps\Project 1\Capture day 1\Session 2\Subject.ASF
:FULLY-SPECIFIED
:DEGREES
94
root -1.29705 19.6131 20.6745 -154.314 -2.98487 179.034
lowerback -28.9792 -3.1954 -8.55218
upperback -1.01361 -1.95911 -0.191565
thorax 14.3967 -1.68844 3.60468
lowerneck -5.42804 -4.08795 -0.00346986
upperneck 24.2579 -8.27571 1.6213
head 8.50314 -4.49968 -0.299051
rclavicle -1.49089e-014 -3.18055e-014
rhumerus -32.7565 -15.6223 -80.6655
rradius 30.3007
rwrist -4.08238
rhand -2.01717 -56.6275
rfingers 7.12502
rthumb 23.6569 -85.1919
lclavicle -1.49089e-014 -3.18055e-014
lhumerus -28.7992 -0.447995 83.803
lradius 24.0543
lwrist 0.911693
lhand -20.8989 -11.3826
lfingers 7.12502
lthumb 5.47196 18.5267
rfemur -25.9119 6.82769 19.5757
rtibia 11.3237
rfoot -20.1249 -3.47428
rtoes -24.8859
lfemur -27.0303 -10.0121 -21.813
ltibia 15.7734
lfoot -12.4153 2.82854
ltoes -25.6086
95
root -1.2921 19.6106 20.6802 -154.362 -2.93276 179.17
lowerback -28.9011 -3.17582 -8.53391
upperback -0.982444 -1.94667 -0.106109
thorax 14.4004 -1.68097 3.69681
lowerneck -5.48905 -4.19294 -0.0502145
upperneck 24.411 -8.41639 1.47717
head 8.56353 -4.58598 -0.358194
rclavicle -4.77083e-015 6.36111e-015
rhumerus -32.7194 -15.5907 -80.6236
rradius 30.3502
rwrist -3.95021
rhand -1.94093 -56.6984
rfingers 7.12502
rthumb 23.7301 -85.2534
lclavicle -4.77083e-015 6.36111e-015
lhumerus -28.7329 -0.34527 83.8341
lradius 23.7929
lwrist 0.984663
lhand -21.2849 -11.7045
lfingers 7.12502
lthumb 5.09927 18.2141
rfemur -26.0614 6.95718 19.72
rtibia 11.6379
rfoot -20.2424 -3.53815
rtoes -24.937
lfemur -27.1458 -10.0124 -21.6343
ltibia 16.0415
lfoot -12.5208 2.94885
ltoes -25.5428
96
root -1.28763 19.609 20.6838 -154.407 -2.91912 179.239
lowerback -28.8202 -3.15678 -8.55181
upperback -0.937882 -1.91644 -0.0616501
thorax 14.4146 -1.66724 3.77045
lowerneck -6.37129 -4.26854 -0.339282
upperneck 26.0842 -8.92329 1.74205
head 9.3461 -4.85791 -0.358459
rclavicle -3.08116e-015 3.97569e-014
rhumerus -32.7285 -15.5973 -80.5978
rradius 30.5187
rwrist -3.9068
rhand -1.99155 -57.2189
rfingers 7.12502
rthumb 23.6815 -85.7801
lclavicle -3.08116e-015 3.97569e-014
lhumerus -28.714 -0.74376 84.045
lradius 23.728
lwrist 1.74055
lhand -21.4498 -11.3717
lfingers 7.12502
lthumb 4.94 18.5507
rfemur -26.2961 7.06443 19.7888
rtibia 12.2028
rfoot -20.5522 -3.72394
rtoes -25.6765
lfemur -27.2484 -10.1136 -21.5115
ltibia 16.2928
lfoot -12.6321 3.08947
ltoes -25.3269
97
root -1.28478 19.6092 20.6869 -154.397 -2.91234 179.192
lowerback -28.7753 -3.17926 -8.62708
upperback -0.916645 -1.91846 -0.0833526
thorax 14.4191 -1.67196 3.78772
lowerneck -5.73232 -4.20968 -0.24865
upperneck 25.4833 -8.78822 1.84872
head 9.01403 -4.78451 -0.282015
rclavicle -3.37934e-015 3.97569e-015
rhumerus -32.8215 -15.5477 -80.6374
rradius 30.7707
rwrist -3.97987
rhand -1.86319 -57.8436
rfingers 7.12502
rthumb 23.8046 -86.3889
lclavicle -3.37934e-015 3.97569e-015
lhumerus -28.7467 -0.818243 83.9936
lradius 23.7269
lwrist 1.6051
lhand -21.3126 -11.0789
lfingers 7.12502
lthumb 5.07255 18.8404
rfemur -26.6127 7.28908 19.6842
rtibia 12.8496
rfoot -20.9189 -4.25333
rtoes -27.0281
lfemur -27.4398 -10.2338 -21.5264
ltibia 16.6183
lfoot -12.7771 3.18992
ltoes -25.344
98
root -1.2811 19.6101 20.6906 -154.346 -2.85717 179.132
lowerback -28.7763 -3.2018 -8.72819
upperback -0.91947 -1.91394 -0.10961
thorax 14.4154 -1.67673 3.81459
lowerneck -5.17545 -4.33637 -0.258374
upperneck 25.0302 -8.93847 1.94002
head 8.76038 -4.8585 -0.230153
rclavicle -1.19271e-014 -4.13472e-014
rhumerus -32.94 -15.6336 -80.5861
rradius 30.9109
rwrist -4.01942
rhand -1.59404 -57.8138
rfingers 7.12502
rthumb 24.0627 -86.3252
lclavicle -1.19271e-014 -4.13472e-014
lhumerus -28.7409 -0.720248 83.8246
lradius 23.5653
lwrist 1.10454
lhand -21.1639 -11.4816
lfingers 7.12502
lthumb 5.21607 18.4343
rfemur -27.0077 7.19592 19.6254
rtibia 13.4766
rfoot -21.203 -4.32252
rtoes -27.2913
lfemur -27.6461 -10.3379 -21.5625
ltibia 16.8813
lfoot -12.8708 3.346
ltoes -25.7872
99
root -1.27564 19.6118 20.6947 -154.4 -2.77446 179.213
lowerback -28.6673 -3.16316 -8.73139
upperback -0.914056 -1.8702 -0.093951
thorax 14.367 -1.65464 3.85499
lowerneck -5.3767 -4.24485 -0.330403
upperneck 25.5803 -8.89859 1.84384
head 8.9872 -4.86898 -0.271903
rclavicle -1.2921e-015 -2.78299e-014
rhumerus -33.0109 -15.8134 -80.4508
rradius 30.904
rwrist -4.04119
rhand -1.47665 -57.2943
rfingers 7.12502
rthumb 24.1753 -85.7908
lclavicle -1.2921e-015 -2.78299e-014
lhumerus -28.7508 -0.842326 83.7911
lradius 23.3665
lwrist 0.917529
lhand -21.0717 -11.662
lfingers 7.12502
lthumb 5.30508 18.2516
rfemur -27.2995 6.85813 19.8122
rtibia 14.1172
rfoot -21.4656 -3.85427
rtoes -27.3989
lfemur -27.682 -10.4796 -21.4224
ltibia 17.0215
lfoot -13.0033 3.49293
ltoes -24.9376
100
root -1.27042 19.6131 20.6979 -154.512 -2.71698 179.345
lowerback -28.4974 -3.11896 -8.66088
upperback -0.88678 -1.84232 -0.0795396
thorax 14.3171 -1.63302 3.85044
lowerneck -5.74669 -4.11078 -0.277309
upperneck 26.2546 -8.79673 1.62196
head 9.2789 -4.84871 -0.381002
rclavicle 5.46658e-015 -1.90833e-014
rhumerus -33.0492 -15.9244 -80.4014
rradius 30.9334
rwrist -3.93893
rhand -1.50912 -56.9672
rfingers 7.12502
rthumb 24.1441 -85.4678
lclavicle 5.46658e-015 -1.90833e-014
lhumerus -28.8026 -0.91754 83.7431
lradius 23.2861
lwrist 0.888769
lhand -20.7071 -11.1873
lfingers 7.12502
lthumb 5.65713 18.7172
rfemur -27.5014 6.62848 20.0415
rtibia 14.7004
rfoot -21.7067 -3.44952
rtoes -28.1362
lfemur -27.6601 -10.5584 -21.2382
ltibia 17.1834
lfoot -13.2017 3.37327
ltoes -23.2253
101
root -1.26102 19.6134 20.6982 -154.609 -2.69835 179.449
lowerback -28.3527 -3.12141 -8.66669
upperback -0.85425 -1.84938 -0.0596319
thorax 14.2905 -1.63334 3.87794
lowerneck -6.39175 -6.76977 -0.0468137
upperneck 27.6867 -7.63137 0.643796
head 9.82682 -2.66585 -0.402926
rclavicle -2.23633e-014 7.95139e-016
rhumerus -33.1681 -15.9429 -80.4099
rradius 31.1126
rwrist -3.87641
rhand -1.79542 -56.5287
rfingers 7.12502
rthumb 23.8696 -85.0654
lclavicle -2.23633e-014 7.95139e-016
lhumerus -28.881 -0.83774 83.606
lradius 23.2562
lwrist 0.930442
lhand -20.5594 -10.9445
lfingers 7.12502
lthumb 5.79979 18.9561
rfemur -27.7699 6.62664 20.1936
rtibia 15.3946
rfoot -22.1039 -3.23638
rtoes -27.9859
lfemur -27.6707 -10.5884 -21.078
ltibia 17.4226
lfoot -13.2669 3.62512
ltoes -24.4746
102
root -1.24286 19.6139 20.6951 -154.787 -2.65411 179.496
lowerback -28.1459 -3.19344 -8.90802
upperback -0.803999 -1.88043 0.0144032
thorax 14.2649 -1.66041 4.08387
lowerneck -6.02791 -6.9574 -0.0879849
upperneck 27.399 -7.92086 0.720585
head 9.66082 -2.81472 -0.384625
rclavicle 1.17283e-014 5.1684e-014
rhumerus -33.3749 -15.8893 -80.3674
rradius 31.359
rwrist -3.99057
rhand -2.16129 -55.7193
rfingers 7.12502
rthumb 23.5187 -84.3015
lclavicle 1.17283e-014 5.1684e-014
lhumerus -28.9612 -0.44755 83.3996
lradius 23.0998
lwrist 0.587057
lhand -21.0953 -11.2551
lfingers 7.12502
lthumb 5.28234 18.6591
rfemur -27.9654 6.83968 20.2842
rtibia 16.2512
rfoot -22.7792 -3.20202
rtoes -27.5023
lfemur -27.5632 -10.5677 -20.9777
ltibia 17.6805
lfoot -13.3141 3.76178
ltoes -25.2942
103
root -1.23939 19.6135 20.6997 -154.855 -2.66868 179.548
lowerback -27.9653 -3.24777 -8.92087
upperback -0.787693 -1.96281 0.0597585
thorax 14.2141 -1.69483 4.1149
lowerneck -5.40559 -6.83926 0.0243621
upperneck 26.5818 -7.80784 0.696204
head 9.24415 -2.80571 -0.373171
rclavicle 1.03368e-014 1.43125e-014
rhumerus -33.5389 -15.6957 -80.3708
rradius 31.6309
rwrist -4.22168
rhand -2.18122 -55.5865
rfingers 7.12502
rthumb 23.4996 -84.1712
lclavicle 1.03368e-014 1.43125e-014
lhumerus -28.9964 0.142627 83.1484
lradius 22.8359
lwrist 0.0829619
lhand -21.5171 -11.408
lfingers 7.12502
lthumb 4.87508 18.516
rfemur -28.3887 6.5035 20.4057
rtibia 17.2136
rfoot -23.5063 -2.58778
rtoes -27.0344
lfemur -27.7284 -10.7114 -20.8749
ltibia 18.1053
lfoot -13.463 4.00032
ltoes -25.6111
104
root -1.23146 19.6107 20.7026 -154.872 -2.68678 179.765
lowerback -27.873 -3.26701 -8.78025
upperback -0.774057 -2.04346 0.126848
thorax 14.1997 -1.72075 4.08514
lowerneck -5.20025 -6.75343 0.0773519
upperneck 26.356 -7.70287 0.6989
head 9.12308 -2.7647 -0.362429
rclavicle 1.98785e-014 4.6118e-014
rhumerus -33.6311 -15.4074 -80.471
rradius 31.9002
rwrist -4.51421
rhand -2.17262 -56.295
rfingers 7.12502
rthumb 23.5078 -84.8786
lclavicle 1.98785e-014 4.6118e-014
lhumerus -29.0661 0.294095 83.011
lradius 22.6998
lwrist 0.036462
lhand -21.2276 -11.172
lfingers 7.12502
lthumb 5.15456 18.7453
rfemur -28.8927 6.22323 20.72
rtibia 18.2713
rfoot -24.0359 -1.89854
rtoes -26.0475
lfemur -27.9176 -10.7248 -20.5592
ltibia 18.4335
lfoot -13.5771 4.20207
ltoes -25.9341
105
root -1.22415 19.6083 20.7058 -154.945 -2.70382 179.846
lowerback -27.6871 -3.29309 -8.77508
upperback -0.754824 -2.09089 0.143461
thorax 14.1428 -1.73758 4.08913
lowerneck -5.33715 -6.76257 0.120586
upperneck 26.662 -7.67433 0.605953
head 9.25031 -2.73656 -0.404919
rclavicle 1.23246e-014 1.27222e-014
rhumerus -33.7347 -15.3494 -80.5028
rradius 32.107
rwrist -4.61115
rhand -2.34418 -56.7534
rfingers 7.12502
rthumb 23.3432 -85.358
lclavicle 1.23246e-014 1.27222e-014
lhumerus -29.1651 0.0203191 82.9937
lradius 22.6275
lwrist 0.318661
lhand -20.9386 -11.0049
lfingers 7.12502
lthumb 5.43362 18.9054
rfemur -29.4253 5.84679 20.9269
rtibia 19.5892
rfoot -24.4133 -1.45289
rtoes -25.8258
lfemur -27.9537 -10.7962 -20.4055
ltibia 18.5644
lfoot -13.5485 4.2628
ltoes -25.5322
106
root -1.21823 19.6077 20.7124 -155.045 -2.64291 179.813
lowerback -27.4014 -3.32324 -8.90731
upperback -0.764067 -2.11104 0.12799
thorax 14.0025 -1.74802 4.14607
lowerneck -5.30266 -6.76601 0.12715
upperneck 26.7874 -7.65308 0.578203
head 9.28663 -2.7185 -0.412715
rclavicle -1.03368e-014 -3.10104e-014
rhumerus -33.9148 -15.4761 -80.4387
rradius 32.2474
rwrist -4.50398
rhand -2.24131 -56.6327
rfingers 7.12502
rthumb 23.4419 -85.2247
lclavicle -1.03368e-014 -3.10104e-014
lhumerus -29.2533 0.0618949 82.8512
lradius 22.4141
lwrist 0.279607
lhand -21.4287 -11.1571
lfingers 7.12502
lthumb 4.96037 18.7649
rfemur -30.0265 5.38182 20.9852
rtibia 20.999
rfoot -24.8704 -0.83407
rtoes -25.8222
lfemur -27.9824 -10.8644 -20.4168
ltibia 18.7612
lfoot -13.6403 4.37312
ltoes -25.7735
107
root -1.21103 19.6054 20.7195 -155.06 -2.46774 179.823
lowerback -27.2027 -3.33586 -9.02765
upperback -0.804907 -2.11397 0.123688
thorax 13.8639 -1.75204 4.21223
lowerneck -5.12958 -6.72687 0.0855832
upperneck 26.7282 -7.61656 0.727866
head 9.24199 -2.68975 -0.344843
rclavicle 1.00386e-014 3.65764e-014
rhumerus -34.0644 -15.5657 -80.3981
rradius 32.2938
rwrist -4.39389
rhand -2.14159 -56.3961
rfingers 7.12502
rthumb 23.5376 -84.9759
lclavicle 1.00386e-014 3.65764e-014
lhumerus -29.3285 0.469329 82.5822
lradius 22.112
lwrist -0.106719
lhand -21.8522 -11.3398
lfingers 7.12502
lthumb 4.55147 18.5913
rfemur -30.8264 4.90188 21.0495
rtibia 22.564
rfoot -25.4377 0.013739
rtoes -26.0035
lfemur -28.1659 -10.8115 -20.4082
ltibia 19.1684
lfoot -13.9137 4.54911
ltoes -26.4122
